<mxfile host="app.diagrams.net" modified="2023-05-16T05:54:13.630Z" agent="Mozilla/5.0 (Windows NT 10.0; Win64; x64) AppleWebKit/537.36 (KHTML, like Gecko) Chrome/113.0.0.0 Safari/537.36" etag="Dbw5cdUk5BjiMMOfHdjg" version="21.3.2" type="device">
  <diagram name="Page-1" id="sGzxX93xdV-w-MH2Fxeq">
    <mxGraphModel dx="1444" dy="693" grid="1" gridSize="10" guides="1" tooltips="1" connect="1" arrows="1" fold="1" page="1" pageScale="1" pageWidth="1169" pageHeight="827" math="0" shadow="0">
      <root>
        <mxCell id="0" />
        <mxCell id="1" parent="0" />
        <mxCell id="5-P8dXUu2r8xgCgaxNXc-20" value="" style="group;strokeColor=none;" parent="1" vertex="1" connectable="0">
          <mxGeometry x="620" y="10" width="120" height="120" as="geometry" />
        </mxCell>
        <mxCell id="5-P8dXUu2r8xgCgaxNXc-19" value="" style="rounded=0;whiteSpace=wrap;html=1;strokeColor=none;" parent="5-P8dXUu2r8xgCgaxNXc-20" vertex="1">
          <mxGeometry width="120" height="120" as="geometry" />
        </mxCell>
        <mxCell id="5-P8dXUu2r8xgCgaxNXc-9" value="Client" style="image;aspect=fixed;perimeter=ellipsePerimeter;html=1;align=center;shadow=0;dashed=0;spacingTop=3;image=img/lib/active_directory/laptop_client.svg;" parent="5-P8dXUu2r8xgCgaxNXc-20" vertex="1">
          <mxGeometry x="28.5" y="20" width="63" height="70" as="geometry" />
        </mxCell>
        <mxCell id="5-P8dXUu2r8xgCgaxNXc-48" style="edgeStyle=orthogonalEdgeStyle;rounded=0;orthogonalLoop=1;jettySize=auto;html=1;endArrow=open;endFill=0;" parent="1" target="5-P8dXUu2r8xgCgaxNXc-19" edge="1">
          <mxGeometry relative="1" as="geometry">
            <Array as="points">
              <mxPoint x="680" y="220" />
              <mxPoint x="680" y="220" />
            </Array>
            <mxPoint x="680.0000000000005" y="230" as="sourcePoint" />
          </mxGeometry>
        </mxCell>
        <mxCell id="5-P8dXUu2r8xgCgaxNXc-52" value="JSON Response" style="edgeLabel;html=1;align=center;verticalAlign=middle;resizable=0;points=[];" parent="5-P8dXUu2r8xgCgaxNXc-48" vertex="1" connectable="0">
          <mxGeometry x="0.2604" y="2" relative="1" as="geometry">
            <mxPoint x="13" y="-11" as="offset" />
          </mxGeometry>
        </mxCell>
        <mxCell id="5-P8dXUu2r8xgCgaxNXc-46" style="edgeStyle=orthogonalEdgeStyle;rounded=0;orthogonalLoop=1;jettySize=auto;html=1;endArrow=open;endFill=0;startArrow=none;startFill=0;entryX=0.198;entryY=-0.009;entryDx=0;entryDy=0;entryPerimeter=0;exitX=0.25;exitY=1;exitDx=0;exitDy=0;" parent="1" source="5-P8dXUu2r8xgCgaxNXc-9" edge="1">
          <mxGeometry relative="1" as="geometry">
            <Array as="points">
              <mxPoint x="630" y="97" />
              <mxPoint x="630" y="150" />
              <mxPoint x="237" y="150" />
            </Array>
            <mxPoint x="237.29800000000023" y="229.3699999999999" as="targetPoint" />
          </mxGeometry>
        </mxCell>
        <mxCell id="5-P8dXUu2r8xgCgaxNXc-49" value="AJAX Request" style="edgeLabel;html=1;align=center;verticalAlign=middle;resizable=0;points=[];" parent="5-P8dXUu2r8xgCgaxNXc-46" vertex="1" connectable="0">
          <mxGeometry x="-0.2271" y="1" relative="1" as="geometry">
            <mxPoint x="10" y="-9" as="offset" />
          </mxGeometry>
        </mxCell>
        <mxCell id="l4sHue1TYqRWIE64qisf-55" value="" style="group" parent="1" vertex="1" connectable="0">
          <mxGeometry x="810" y="380" width="170" height="280" as="geometry" />
        </mxCell>
        <mxCell id="l4sHue1TYqRWIE64qisf-56" value="&lt;b&gt;ExternalServices&lt;/b&gt;" style="shape=umlFrame;whiteSpace=wrap;html=1;pointerEvents=0;width=100;height=30;dashed=1;" parent="l4sHue1TYqRWIE64qisf-55" vertex="1">
          <mxGeometry width="169.99999999999994" height="280" as="geometry" />
        </mxCell>
        <mxCell id="l4sHue1TYqRWIE64qisf-57" value="ExternalPaymentService" style="swimlane;fontStyle=1;align=center;verticalAlign=top;childLayout=stackLayout;horizontal=1;startSize=26;horizontalStack=0;resizeParent=1;resizeParentMax=0;resizeLast=0;collapsible=1;marginBottom=0;" parent="l4sHue1TYqRWIE64qisf-55" vertex="1">
          <mxGeometry x="5.086923076923076" y="40" width="159.83923076923074" height="82" as="geometry" />
        </mxCell>
        <mxCell id="l4sHue1TYqRWIE64qisf-58" value="ExternalDeliveryService" style="swimlane;fontStyle=1;align=center;verticalAlign=top;childLayout=stackLayout;horizontal=1;startSize=26;horizontalStack=0;resizeParent=1;resizeParentMax=0;resizeLast=0;collapsible=1;marginBottom=0;" parent="l4sHue1TYqRWIE64qisf-55" vertex="1">
          <mxGeometry x="5.086923076923059" y="180" width="159.83923076923074" height="82" as="geometry" />
        </mxCell>
        <mxCell id="l4sHue1TYqRWIE64qisf-59" value="" style="group;movable=1;resizable=1;rotatable=1;deletable=1;editable=1;locked=0;connectable=1;" parent="1" vertex="1" connectable="0">
          <mxGeometry x="50" y="340" width="710" height="330" as="geometry" />
        </mxCell>
        <mxCell id="l4sHue1TYqRWIE64qisf-60" value="&lt;b&gt;Domain&lt;/b&gt;" style="shape=umlFrame;whiteSpace=wrap;html=1;pointerEvents=0;width=100;height=30;dashed=1;" parent="l4sHue1TYqRWIE64qisf-59" vertex="1">
          <mxGeometry width="709.9999999999999" height="330" as="geometry" />
        </mxCell>
        <mxCell id="l4sHue1TYqRWIE64qisf-63" value="" style="group;movable=1;resizable=1;rotatable=1;deletable=1;editable=1;locked=0;connectable=1;imageAspect=0;" parent="l4sHue1TYqRWIE64qisf-59" vertex="1" connectable="0">
          <mxGeometry x="8.212407991587803" y="50" width="613.6908517350158" height="260" as="geometry" />
        </mxCell>
        <mxCell id="BEf65RAjl5etI0friWLb-2" style="edgeStyle=orthogonalEdgeStyle;rounded=0;orthogonalLoop=1;jettySize=auto;html=1;exitX=1;exitY=0.25;exitDx=0;exitDy=0;entryX=0;entryY=0.75;entryDx=0;entryDy=0;startArrow=block;startFill=1;" parent="l4sHue1TYqRWIE64qisf-63" source="l4sHue1TYqRWIE64qisf-67" target="l4sHue1TYqRWIE64qisf-61" edge="1">
          <mxGeometry relative="1" as="geometry" />
        </mxCell>
        <mxCell id="l4sHue1TYqRWIE64qisf-67" value="Notification" style="swimlane;fontStyle=1;align=center;verticalAlign=top;childLayout=stackLayout;horizontal=1;startSize=26;horizontalStack=0;resizeParent=1;resizeParentMax=0;resizeLast=0;collapsible=1;marginBottom=0;" parent="l4sHue1TYqRWIE64qisf-63" vertex="1">
          <mxGeometry x="97.80466179679985" y="20" width="110.86869797550764" height="47.14" as="geometry" />
        </mxCell>
        <mxCell id="l4sHue1TYqRWIE64qisf-68" value="Member" style="swimlane;fontStyle=1;align=center;verticalAlign=top;childLayout=stackLayout;horizontal=1;startSize=26;horizontalStack=0;resizeParent=1;resizeParentMax=0;resizeLast=0;collapsible=1;marginBottom=0;" parent="l4sHue1TYqRWIE64qisf-63" vertex="1">
          <mxGeometry x="178.433323387988" y="150" width="110.86869797550764" height="47.14" as="geometry" />
        </mxCell>
        <mxCell id="l4sHue1TYqRWIE64qisf-69" value="Store" style="swimlane;fontStyle=1;align=center;verticalAlign=top;childLayout=stackLayout;horizontal=1;startSize=26;horizontalStack=0;resizeParent=1;resizeParentMax=0;resizeLast=0;collapsible=1;marginBottom=0;" parent="l4sHue1TYqRWIE64qisf-63" vertex="1">
          <mxGeometry x="320.2815632294884" y="150" width="110.86869797550764" height="47.14" as="geometry" />
        </mxCell>
        <mxCell id="l4sHue1TYqRWIE64qisf-61" value="Market" style="swimlane;fontStyle=1;align=center;verticalAlign=top;childLayout=stackLayout;horizontal=1;startSize=26;horizontalStack=0;resizeParent=1;resizeParentMax=0;resizeLast=0;collapsible=1;marginBottom=0;" parent="l4sHue1TYqRWIE64qisf-63" vertex="1">
          <mxGeometry x="254.34574132492114" y="39.99714285714286" width="141.10410094637226" height="47.142857142857146" as="geometry" />
        </mxCell>
        <mxCell id="l4sHue1TYqRWIE64qisf-72" value="" style="endArrow=classic;startArrow=classic;html=1;rounded=0;exitX=0.377;exitY=0.016;exitDx=0;exitDy=0;entryX=0.75;entryY=1;entryDx=0;entryDy=0;exitPerimeter=0;" parent="l4sHue1TYqRWIE64qisf-63" source="l4sHue1TYqRWIE64qisf-69" target="l4sHue1TYqRWIE64qisf-61" edge="1">
          <mxGeometry width="50" height="50" relative="1" as="geometry">
            <mxPoint x="305.3522607781283" y="210" as="sourcePoint" />
            <mxPoint x="353.8801261829653" y="173" as="targetPoint" />
          </mxGeometry>
        </mxCell>
        <mxCell id="l4sHue1TYqRWIE64qisf-71" value="" style="endArrow=classic;startArrow=classic;html=1;rounded=0;exitX=0.5;exitY=0;exitDx=0;exitDy=0;edgeStyle=orthogonalEdgeStyle;entryX=0.25;entryY=1;entryDx=0;entryDy=0;" parent="l4sHue1TYqRWIE64qisf-63" source="l4sHue1TYqRWIE64qisf-68" target="l4sHue1TYqRWIE64qisf-61" edge="1">
          <mxGeometry width="50" height="50" relative="1" as="geometry">
            <mxPoint x="299.3796004206099" y="190" as="sourcePoint" />
            <mxPoint x="282.9547844374343" y="80" as="targetPoint" />
          </mxGeometry>
        </mxCell>
        <mxCell id="l4sHue1TYqRWIE64qisf-73" value="" style="endArrow=classic;html=1;rounded=0;exitX=1;exitY=0.5;exitDx=0;exitDy=0;entryX=-0.007;entryY=0.254;entryDx=0;entryDy=0;entryPerimeter=0;" parent="1" source="l4sHue1TYqRWIE64qisf-61" target="l4sHue1TYqRWIE64qisf-56" edge="1">
          <mxGeometry width="50" height="50" relative="1" as="geometry">
            <mxPoint x="691" y="422" as="sourcePoint" />
            <mxPoint x="820" y="454" as="targetPoint" />
          </mxGeometry>
        </mxCell>
        <mxCell id="l4sHue1TYqRWIE64qisf-74" value="primitives/model" style="edgeLabel;html=1;align=center;verticalAlign=middle;resizable=0;points=[];" parent="1" vertex="1" connectable="0">
          <mxGeometry x="340.0024671814672" y="320" as="geometry" />
        </mxCell>
        <mxCell id="l4sHue1TYqRWIE64qisf-75" value="" style="group" parent="1" vertex="1" connectable="0">
          <mxGeometry x="49" y="230" width="951" height="70" as="geometry" />
        </mxCell>
        <mxCell id="l4sHue1TYqRWIE64qisf-76" value="&lt;b&gt;Service&lt;/b&gt;" style="shape=umlFrame;whiteSpace=wrap;html=1;pointerEvents=0;width=100;height=30;dashed=1;" parent="l4sHue1TYqRWIE64qisf-75" vertex="1">
          <mxGeometry width="950.9999999999998" height="70" as="geometry" />
        </mxCell>
        <mxCell id="l4sHue1TYqRWIE64qisf-77" value="MemberService" style="swimlane;fontStyle=1;align=center;verticalAlign=top;childLayout=stackLayout;horizontal=1;startSize=26;horizontalStack=0;resizeParent=1;resizeParentMax=0;resizeLast=0;collapsible=1;marginBottom=0;" parent="l4sHue1TYqRWIE64qisf-75" vertex="1" collapsed="1">
          <mxGeometry x="171" y="5.83" width="130" height="54.17" as="geometry">
            <mxRectangle x="171" y="5.833333333333334" width="189" height="24.5" as="alternateBounds" />
          </mxGeometry>
        </mxCell>
        <mxCell id="l4sHue1TYqRWIE64qisf-78" value="TransactionService" style="swimlane;fontStyle=1;align=center;verticalAlign=top;childLayout=stackLayout;horizontal=1;startSize=26;horizontalStack=0;resizeParent=1;resizeParentMax=0;resizeLast=0;collapsible=1;marginBottom=0;" parent="l4sHue1TYqRWIE64qisf-75" vertex="1" collapsed="1">
          <mxGeometry x="381" y="5.83" width="140" height="54.17" as="geometry">
            <mxRectangle x="381" y="5.833333333333334" width="189" height="24.5" as="alternateBounds" />
          </mxGeometry>
        </mxCell>
        <mxCell id="l4sHue1TYqRWIE64qisf-79" value="StoreService" style="swimlane;fontStyle=1;align=center;verticalAlign=top;childLayout=stackLayout;horizontal=1;startSize=26;horizontalStack=0;resizeParent=1;resizeParentMax=0;resizeLast=0;collapsible=1;marginBottom=0;" parent="l4sHue1TYqRWIE64qisf-75" vertex="1" collapsed="1">
          <mxGeometry x="591" y="5.83" width="140" height="54.17" as="geometry">
            <mxRectangle x="591" y="5.833333333333334" width="189" height="23.333333333333336" as="alternateBounds" />
          </mxGeometry>
        </mxCell>
        <mxCell id="BEf65RAjl5etI0friWLb-1" style="rounded=0;orthogonalLoop=1;jettySize=auto;html=1;exitX=0.359;exitY=1.024;exitDx=0;exitDy=0;exitPerimeter=0;" parent="1" source="l4sHue1TYqRWIE64qisf-76" edge="1">
          <mxGeometry relative="1" as="geometry">
            <mxPoint x="390" y="340" as="targetPoint" />
          </mxGeometry>
        </mxCell>
        <mxCell id="tmz3APdAzbHFRQ8mu8Cr-2" style="rounded=0;orthogonalLoop=1;jettySize=auto;html=1;exitX=0.646;exitY=0.049;exitDx=0;exitDy=0;exitPerimeter=0;" edge="1" parent="1" source="l4sHue1TYqRWIE64qisf-67">
          <mxGeometry relative="1" as="geometry">
            <mxPoint x="228" y="290" as="targetPoint" />
            <mxPoint x="400" y="312" as="sourcePoint" />
          </mxGeometry>
        </mxCell>
      </root>
    </mxGraphModel>
  </diagram>
</mxfile>
